<?xml version="1.0" encoding="utf-8"?>
<!-- Generator: Adobe Illustrator 14.0.0, SVG Export Plug-In . SVG Version: 6.00 Build 43363)  -->
<!DOCTYPE svg PUBLIC "-//W3C//DTD SVG 1.1//EN" "http://www.w3.org/Graphics/SVG/1.1/DTD/svg11.dtd">
<svg version="1.1" xmlns="http://www.w3.org/2000/svg" xmlns:xlink="http://www.w3.org/1999/xlink" x="0px" y="0px" width="256px"
	 height="256px" viewBox="0 0 256 256" enable-background="new 0 0 256 256" xml:space="preserve">
<g id="active">
</g>
<g id="Layer_11">
	<g>
		<defs>
			<path id="SVGID_1_" d="M256,206c0,27.614-22.386,50-50,50H50c-27.614,0-37,0-50,0V50C0,22.386,22.386,0,50,0h156
				c27.614,0,37,0,50,0V206z"/>
		</defs>
		<clipPath id="SVGID_2_">
			<use xlink:href="#SVGID_1_"  overflow="visible"/>
		</clipPath>
		<rect clip-path="url(#SVGID_2_)" fill="#005EAB" width="256" height="256"/>
		<path clip-path="url(#SVGID_2_)" fill="#F2F2F2" d="M27.461,32.485c0-1.301,1.055-2.356,2.356-2.356h196.364
			c1.302,0,2.356,1.055,2.356,2.356v154.424c0,1.302-1.055,2.356-2.356,2.356H29.817c-1.301,0-2.356-1.055-2.356-2.356V32.485z"/>
		<path clip-path="url(#SVGID_2_)" fill="#E6E6E6" d="M228.538,159.485v27.424c0,1.302-1.055,2.356-2.356,2.356H29.817
			c-1.301,0-2.356-1.055-2.356-2.356v-27.424H228.538z"/>
		<rect y="216.195" clip-path="url(#SVGID_2_)" fill="#3C3C3C" width="256" height="39.805"/>
		<g clip-path="url(#SVGID_2_)">
			<path fill="#9B5C8F" d="M48.587,46.127h45.867c2.903,0,5.252,2.35,5.252,5.252v17.507c0,2.903-2.35,5.253-5.252,5.253H78.006
				l2.258,5.529l-9.929-5.529H48.61c-2.902,0-5.252-2.351-5.252-5.253V51.379C43.335,48.5,45.685,46.127,48.587,46.127z"/>
			<path fill="#FFFFFF" d="M46.169,50.896c0.322-0.438,0.806-0.668,1.452-0.714c1.174-0.092,1.842,0.461,2.003,1.659
				c0.714,4.814,1.498,8.892,2.327,12.233l5.045-9.606c0.46-0.875,1.037-1.336,1.728-1.383c1.013-0.068,1.636,0.577,1.889,1.936
				c0.576,3.064,1.313,5.667,2.189,7.879c0.599-5.852,1.612-10.067,3.041-12.67c0.346-0.645,0.853-0.967,1.521-1.013
				c0.53-0.047,1.014,0.114,1.451,0.46c0.438,0.346,0.668,0.784,0.714,1.313c0.023,0.415-0.045,0.76-0.23,1.105
				c-0.898,1.659-1.636,4.446-2.234,8.317c-0.576,3.755-0.784,6.681-0.646,8.776c0.046,0.577-0.045,1.083-0.276,1.521
				c-0.277,0.507-0.691,0.784-1.222,0.83c-0.598,0.045-1.221-0.23-1.819-0.852c-2.143-2.19-3.848-5.461-5.092-9.814
				c-1.497,2.948-2.603,5.16-3.317,6.633c-1.359,2.604-2.511,3.939-3.479,4.009c-0.622,0.046-1.152-0.483-1.612-1.589
				c-1.175-3.018-2.442-8.847-3.801-17.485C45.731,51.84,45.846,51.311,46.169,50.896z"/>
			<path fill="#FFFFFF" d="M95.698,54.512c-0.829-1.451-2.05-2.327-3.686-2.672c-0.438-0.092-0.852-0.138-1.244-0.138
				c-2.211,0-4.008,1.152-5.413,3.456c-1.198,1.958-1.797,4.124-1.797,6.497c0,1.774,0.369,3.294,1.106,4.562
				c0.829,1.451,2.05,2.326,3.686,2.671c0.438,0.093,0.853,0.139,1.244,0.139c2.235,0,4.032-1.152,5.414-3.456
				c1.198-1.98,1.796-4.146,1.796-6.519C96.804,57.254,96.435,55.756,95.698,54.512L95.698,54.512z M92.795,60.894
				c-0.322,1.521-0.897,2.649-1.75,3.41c-0.668,0.598-1.291,0.853-1.866,0.737c-0.553-0.115-1.015-0.599-1.36-1.497
				c-0.276-0.715-0.414-1.428-0.414-2.097c0-0.575,0.046-1.152,0.161-1.682c0.207-0.944,0.598-1.866,1.221-2.742
				c0.76-1.128,1.567-1.589,2.396-1.428c0.553,0.115,1.014,0.599,1.359,1.497c0.276,0.715,0.414,1.429,0.414,2.097
				C92.957,59.788,92.888,60.364,92.795,60.894L92.795,60.894z"/>
			<path fill="#FFFFFF" d="M81.254,54.512c-0.829-1.451-2.073-2.327-3.686-2.672c-0.438-0.092-0.852-0.138-1.244-0.138
				c-2.212,0-4.008,1.152-5.414,3.456c-1.198,1.958-1.796,4.124-1.796,6.497c0,1.774,0.369,3.294,1.105,4.562
				c0.829,1.451,2.05,2.326,3.687,2.671c0.437,0.093,0.852,0.139,1.243,0.139c2.234,0,4.032-1.152,5.414-3.456
				c1.198-1.98,1.797-4.146,1.797-6.519C82.36,57.254,81.991,55.756,81.254,54.512L81.254,54.512z M78.352,60.894
				c-0.323,1.521-0.899,2.649-1.751,3.41c-0.668,0.598-1.291,0.853-1.866,0.737c-0.553-0.115-1.014-0.599-1.359-1.497
				c-0.276-0.715-0.414-1.428-0.414-2.097c0-0.575,0.046-1.152,0.161-1.682c0.208-0.944,0.599-1.866,1.221-2.742
				c0.76-1.128,1.567-1.589,2.396-1.428c0.553,0.115,1.014,0.599,1.359,1.497c0.276,0.715,0.415,1.429,0.415,2.097
				C78.513,59.788,78.466,60.364,78.352,60.894L78.352,60.894z"/>
			<g>
				<path d="M105.535,54.305c-1.543,1.521-2.304,3.456-2.304,5.805c0,2.512,0.76,4.562,2.28,6.105s3.501,2.326,5.966,2.326
					c0.714,0,1.521-0.114,2.396-0.368v-3.731c-0.806,0.23-1.497,0.345-2.096,0.345c-1.221,0-2.188-0.415-2.926-1.221
					c-0.737-0.829-1.105-1.935-1.105-3.34c0-1.313,0.368-2.396,1.083-3.226c0.737-0.853,1.636-1.267,2.742-1.267
					c0.714,0,1.474,0.115,2.303,0.346v-3.732c-0.76-0.207-1.612-0.299-2.511-0.299C109.013,52.024,107.078,52.785,105.535,54.305z
					 M121.522,52.024c-2.119,0-3.778,0.714-4.976,2.119c-1.198,1.405-1.774,3.387-1.774,5.921c0,2.741,0.599,4.837,1.774,6.29
					c1.175,1.45,2.902,2.187,5.16,2.187c2.188,0,3.87-0.737,5.044-2.187c1.176-1.453,1.774-3.502,1.774-6.128
					c0-2.626-0.599-4.653-1.797-6.082C125.508,52.738,123.78,52.024,121.522,52.024z M123.342,64.003
					c-0.414,0.646-1.036,0.968-1.819,0.968c-0.737,0-1.29-0.323-1.682-0.968c-0.392-0.645-0.575-1.935-0.575-3.894
					c0-3.018,0.76-4.515,2.303-4.515c1.613,0,2.442,1.521,2.442,4.584C123.987,62.068,123.758,63.358,123.342,64.003z
					 M139.906,52.462l-0.829,3.524c-0.208,0.898-0.416,1.821-0.6,2.765l-0.461,2.442c-0.437-2.442-1.036-5.345-1.797-8.731h-5.345
					L128.87,68.15h4.01l1.082-10.804l2.742,10.804h2.856l2.627-10.781l1.127,10.781h4.193l-2.119-15.688H139.906L139.906,52.462z
					 M159.097,52.462l-0.83,3.524c-0.207,0.898-0.414,1.821-0.6,2.765l-0.46,2.442c-0.438-2.442-1.037-5.345-1.797-8.731h-5.345
					l-2.003,15.688h4.007l1.083-10.804l2.74,10.804h2.858l2.604-10.781l1.127,10.781h4.194l-2.12-15.688H159.097z M172.135,61.954
					h3.755v-3.249h-3.755v-2.879h4.33v-3.34h-8.568v15.688h8.593v-3.339h-4.354V61.954z M188.421,59.465
					c0.438-0.714,0.669-1.452,0.669-2.211c0-1.474-0.575-2.65-1.728-3.502c-1.151-0.853-2.742-1.29-4.723-1.29h-4.931V68.15h4.239
					v-7.141h0.069l3.433,7.141h4.469l-3.386-7.072C187.338,60.709,187.984,60.18,188.421,59.465z M181.926,59.212V55.48
					c1.014,0.023,1.728,0.184,2.166,0.506c0.437,0.323,0.644,0.83,0.644,1.567C184.735,58.636,183.792,59.189,181.926,59.212z
					 M191.578,54.305c-1.544,1.521-2.305,3.456-2.305,5.805c0,2.512,0.761,4.562,2.282,6.105c1.52,1.543,3.501,2.326,5.966,2.326
					c0.715,0,1.521-0.114,2.395-0.368v-3.731c-0.805,0.23-1.496,0.345-2.096,0.345c-1.22,0-2.188-0.415-2.925-1.221
					c-0.737-0.829-1.105-1.935-1.105-3.34c0-1.313,0.368-2.396,1.081-3.226c0.737-0.853,1.637-1.267,2.743-1.267
					c0.713,0,1.474,0.115,2.302,0.346v-3.732c-0.758-0.207-1.61-0.299-2.509-0.299C195.079,52.024,193.121,52.785,191.578,54.305z
					 M205.331,64.787V61.93h3.755v-3.248h-3.755v-2.88h4.354v-3.34h-8.57V68.15h8.594v-3.34h-4.378V64.787z"/>
			</g>
		</g>
		<path clip-path="url(#SVGID_2_)" fill="#FFFFFF" d="M56.078,227.495c0,1.158-0.208,7.269-4.429,11.527
			c-4.222-4.259-4.43-10.369-4.43-11.527c-1.53,0.322-3.001,0.742-4.4,1.248c2.085,8.556,8.34,12.212,8.831,12.487
			c0.489-0.275,6.744-3.932,8.829-12.487C59.079,228.237,57.606,227.817,56.078,227.495"/>
		<path clip-path="url(#SVGID_2_)" fill="#FFFFFF" d="M61.565,229.16c-0.45,1.305-3.446,9.312-9.917,12.073
			c-6.472-2.762-9.468-10.769-9.917-12.073c-1.716,0.696-3.312,1.526-4.762,2.473c3.238,6.877,13.999,11.697,14.679,11.996
			c0.679-0.299,11.439-5.119,14.678-11.996C64.877,230.687,63.28,229.856,61.565,229.16"/>
		<path clip-path="url(#SVGID_2_)" fill="#FFFFFF" d="M67.279,232.284c-1.346,1.869-6.657,8.491-15.63,10.563
			c-8.975-2.072-14.286-8.694-15.632-10.563c-2.156,1.554-3.937,3.373-5.241,5.389c7.521,5.798,20.145,5.967,20.873,5.972
			c0.727-0.005,13.351-0.174,20.872-5.972C71.216,235.657,69.435,233.838,67.279,232.284"/>
		<path clip-path="url(#SVGID_2_)" fill="#FFFFFF" d="M73.189,238.797c-6.721,4.322-20.782,4.823-21.541,4.847
			c-0.759-0.023-14.821-0.524-21.542-4.847c-0.292,0.538-0.55,1.089-0.772,1.649c1.074,0.449,9.227,3.655,22.314,3.198
			c13.086,0.457,21.238-2.749,22.312-3.198C73.738,239.886,73.479,239.335,73.189,238.797"/>
		<path clip-path="url(#SVGID_2_)" fill="#FFFFFF" d="M83.181,241.2l1.832-2.605c1.102,1.151,2.815,2.136,4.975,2.136
			c1.854,0,2.723-0.821,2.723-1.735c0-2.723-9.012-0.821-9.012-6.713c0-2.604,2.253-4.765,5.938-4.765
			c2.487,0,4.553,0.751,6.102,2.183l-1.854,2.488c-1.267-1.173-2.957-1.714-4.553-1.714c-1.407,0-2.207,0.611-2.207,1.549
			c0,2.465,8.989,0.798,8.989,6.643c0,2.864-2.065,5.023-6.266,5.023C86.819,243.689,84.66,242.679,83.181,241.2"/>
		<polygon clip-path="url(#SVGID_2_)" fill="#FFFFFF" points="109.043,243.406 104.302,237.117 103.082,238.595 103.082,243.406 
			99.75,243.406 99.75,227.753 103.082,227.753 103.082,234.724 108.62,227.753 112.727,227.753 106.509,235.1 113.149,243.406 		
			"/>
		<polygon clip-path="url(#SVGID_2_)" fill="#FFFFFF" points="120.191,243.406 120.191,237 114.184,227.753 117.985,227.753 
			121.857,234.02 125.729,227.753 129.509,227.753 123.524,237 123.524,243.406 		"/>
		<polygon clip-path="url(#SVGID_2_)" fill="#FFFFFF" points="136.759,243.406 130.726,227.753 134.506,227.753 138.848,239.77 
			143.188,227.753 146.967,227.753 140.935,243.406 		"/>
		<polygon clip-path="url(#SVGID_2_)" fill="#FFFFFF" points="149.594,243.406 149.594,227.753 160.671,227.753 160.671,230.687 
			152.926,230.687 152.926,233.972 160.507,233.972 160.507,236.906 152.926,236.906 152.926,240.476 160.671,240.476 
			160.671,243.406 		"/>
		<path clip-path="url(#SVGID_2_)" fill="#FFFFFF" d="M173.295,243.406l-3.073-5.562h-2.441v5.562h-3.333v-15.653h7.323
			c3.262,0,5.279,2.137,5.279,5.046c0,2.745-1.76,4.249-3.449,4.646l3.544,5.962H173.295z M173.623,232.775
			c0-1.292-1.008-2.088-2.322-2.088h-3.521v4.224h3.521C172.615,234.911,173.623,234.114,173.623,232.775"/>
		<path clip-path="url(#SVGID_2_)" fill="#FFFFFF" d="M179.961,235.591c0-4.951,3.756-8.097,8.355-8.097
			c3.238,0,5.28,1.644,6.453,3.497l-2.746,1.501c-0.727-1.101-2.066-2.041-3.707-2.041c-2.863,0-4.93,2.183-4.93,5.14
			c0,2.958,2.066,5.14,4.93,5.14c1.384,0,2.676-0.609,3.309-1.196v-1.879h-4.131v-2.908h7.463v6.008
			c-1.595,1.783-3.824,2.934-6.641,2.934C183.717,243.688,179.961,240.521,179.961,235.591"/>
		<polygon clip-path="url(#SVGID_2_)" fill="#FFFFFF" points="198.78,243.406 198.78,227.753 209.858,227.753 209.858,230.687 
			202.113,230.687 202.113,233.972 209.694,233.972 209.694,236.906 202.113,236.906 202.113,240.476 209.858,240.476 
			209.858,243.406 		"/>
		<g clip-path="url(#SVGID_2_)">
			<rect x="28" y="96" fill="#E6E6E6" width="200" height="31"/>
			<g>
				<rect x="145" y="107" fill="#B3B3B3" width="74" height="8"/>
				<rect x="71.75" y="107" fill="#B3B3B3" width="20.25" height="8"/>
				<rect x="104.875" y="107" fill="#B3B3B3" width="27.25" height="8"/>
			</g>
			<g>
				<path fill="#999999" d="M41.566,115.213h-1.602l-0.648,2.772H37.39l0.648-2.772h-1.332l0.396-1.746h1.35l0.45-1.908h-1.296
					l0.396-1.746h1.314l0.63-2.592h1.908l-0.612,2.592h1.602l0.63-2.592h1.908l-0.612,2.592h1.296l-0.45,1.746h-1.26l-0.45,1.908
					h1.242l-0.432,1.746h-1.224l-0.648,2.772h-1.926L41.566,115.213z M40.378,113.467h1.602l0.45-1.908h-1.602L40.378,113.467z"/>
				<g>
					<path fill="#999999" d="M51.631,116.887c0.868,0,1.529-0.231,1.984-0.693s0.683-1.022,0.683-1.68
						c0-0.798-0.238-1.386-0.714-1.764c-0.476-0.378-1.226-0.567-2.247-0.567h-1.512v-1.449l2.541-3.465l1.197-0.945l-1.659,0.189
						h-3.528v-2.31h8.022v1.491l-2.961,3.969l-0.924,0.567v0.105l0.882-0.126c0.49,0.042,0.955,0.154,1.396,0.336
						c0.441,0.182,0.826,0.444,1.155,0.788c0.329,0.343,0.591,0.766,0.788,1.271c0.196,0.504,0.294,1.085,0.294,1.743
						c0,0.826-0.137,1.541-0.41,2.142c-0.273,0.602-0.651,1.106-1.134,1.512s-1.047,0.707-1.69,0.903
						c-0.644,0.196-1.337,0.294-2.079,0.294c-0.616,0-1.253-0.056-1.911-0.168c-0.658-0.112-1.19-0.273-1.596-0.483l0.735-2.268
						c0.364,0.182,0.767,0.329,1.208,0.441C50.591,116.832,51.085,116.887,51.631,116.887z"/>
					<path fill="#999999" d="M51.715,119.697c-0.64,0-1.311-0.059-1.995-0.175c-0.717-0.123-1.287-0.296-1.742-0.532l-0.376-0.195
						l1.045-3.225l0.52,0.26c0.33,0.165,0.702,0.301,1.107,0.403c0.397,0.102,0.854,0.153,1.357,0.153
						c0.735,0,1.268-0.178,1.628-0.544c0.362-0.368,0.539-0.803,0.539-1.329c0-0.643-0.172-1.091-0.525-1.372
						c-0.383-0.305-1.035-0.459-1.936-0.459h-2.012v-2.112l2.611-3.561l-4.06,0.003v-3.31h9.022v2.157l-2.927,3.924
						c0.348,0.065,0.687,0.166,1.011,0.299c0.504,0.208,0.95,0.512,1.325,0.904c0.374,0.391,0.674,0.873,0.893,1.436
						c0.218,0.56,0.328,1.207,0.328,1.924c0,0.894-0.153,1.684-0.455,2.349c-0.302,0.667-0.729,1.235-1.267,1.688
						c-0.532,0.447-1.16,0.783-1.867,0.999C53.25,119.591,52.502,119.697,51.715,119.697L51.715,119.697z M48.824,118.269
						c0.298,0.108,0.654,0.197,1.064,0.268c1.369,0.232,2.663,0.222,3.761-0.112c0.577-0.175,1.086-0.447,1.514-0.807
						c0.423-0.356,0.76-0.805,1-1.336c0.243-0.534,0.365-1.185,0.365-1.936c0-0.592-0.087-1.118-0.26-1.562
						c-0.171-0.439-0.401-0.811-0.683-1.106c-0.278-0.291-0.61-0.517-0.984-0.671c-0.376-0.154-0.777-0.253-1.193-0.294
						l-1.395,0.199v-0.961l1.081-0.664l2.804-3.759v-0.825h-7.022v1.31h3.028l3.347-0.384l-2.521,1.991l-2.404,3.278v0.785h1.012
						c1.148,0,1.985,0.221,2.558,0.676c0.599,0.476,0.903,1.201,0.903,2.155c0,0.791-0.278,1.475-0.827,2.031
						c-0.55,0.559-1.338,0.842-2.34,0.842c-0.586,0-1.126-0.062-1.604-0.184c-0.271-0.069-0.532-0.151-0.779-0.246L48.824,118.269
						L48.824,118.269z"/>
				</g>
			</g>
		</g>
		<g clip-path="url(#SVGID_2_)">
			<rect x="28" y="127.5" fill="#F2F2F2" width="200" height="31"/>
			<g>
				<rect x="145" y="138.5" fill="#B3B3B3" width="74" height="8"/>
				<rect x="71.75" y="138.5" fill="#B3B3B3" width="20.25" height="8"/>
				<rect x="104.875" y="138.5" fill="#B3B3B3" width="27.25" height="8"/>
			</g>
			<g>
				<g>
					<path fill="#999999" d="M41.566,146.713h-1.602l-0.648,2.772H37.39l0.648-2.772h-1.332l0.396-1.746h1.35l0.45-1.908h-1.296
						l0.396-1.745h1.314l0.63-2.593h1.908l-0.612,2.593h1.602l0.63-2.593h1.908l-0.612,2.593h1.296l-0.45,1.745h-1.26l-0.45,1.908
						h1.242l-0.432,1.746h-1.224l-0.648,2.772h-1.926L41.566,146.713z M40.378,144.967h1.602l0.45-1.908h-1.602L40.378,144.967z"/>
					<g>
						<path fill="#999999" d="M56.545,139.295c0,0.713-0.13,1.435-0.389,2.162c-0.259,0.729-0.588,1.442-0.987,2.143
							c-0.399,0.699-0.84,1.375-1.323,2.026s-0.956,1.249-1.417,1.796l-1.113,0.86v0.104l1.512-0.293h4.032v2.31h-8.841v-1.407
							c0.336-0.35,0.714-0.76,1.134-1.229s0.843-0.966,1.271-1.49c0.427-0.525,0.843-1.068,1.25-1.628
							c0.406-0.56,0.77-1.124,1.092-1.69c0.322-0.567,0.578-1.116,0.767-1.648s0.284-1.036,0.284-1.512
							c0-0.574-0.165-1.047-0.494-1.418c-0.329-0.371-0.851-0.557-1.564-0.557c-0.448,0-0.907,0.095-1.375,0.283
							c-0.469,0.189-0.865,0.431-1.187,0.725l-1.092-1.932c0.546-0.447,1.166-0.809,1.858-1.082
							c0.693-0.272,1.508-0.409,2.446-0.409c0.602,0,1.155,0.084,1.659,0.252s0.938,0.413,1.302,0.735s0.651,0.725,0.861,1.207
							C56.44,138.087,56.545,138.65,56.545,139.295z"/>
						<path fill="#999999" d="M57.36,150.903h-9.841v-2.108l0.14-0.146c0.332-0.346,0.706-0.752,1.122-1.216
							c0.415-0.463,0.833-0.954,1.255-1.472c0.421-0.519,0.832-1.054,1.232-1.606c0.39-0.537,0.747-1.091,1.062-1.644
							c0.306-0.54,0.552-1.067,0.73-1.568c0.169-0.477,0.255-0.929,0.255-1.345c0-0.451-0.121-0.807-0.368-1.087
							c-0.383-0.432-1.372-0.547-2.379-0.141c-0.412,0.166-0.76,0.378-1.036,0.63l-0.464,0.424l-1.607-2.845l0.325-0.267
							c0.585-0.479,1.255-0.87,1.992-1.16c0.75-0.295,1.634-0.444,2.63-0.444c0.653,0,1.265,0.094,1.817,0.277
							c0.565,0.188,1.062,0.47,1.475,0.836c0.417,0.369,0.75,0.834,0.988,1.382c0.236,0.544,0.356,1.181,0.356,1.891
							c0,0.767-0.141,1.551-0.417,2.33c-0.268,0.753-0.613,1.501-1.023,2.222c-0.407,0.714-0.863,1.412-1.356,2.077
							c-0.44,0.593-0.883,1.157-1.318,1.679l4.43-0.009V150.903L57.36,150.903z M48.519,149.903h7.841v-1.31h-3.532l-2.012,0.399
							v-0.956l1.265-0.979c0.45-0.533,0.908-1.115,1.364-1.73c0.47-0.633,0.904-1.298,1.291-1.977
							c0.382-0.67,0.701-1.364,0.95-2.062c0.239-0.671,0.36-1.342,0.36-1.994c0-0.572-0.092-1.074-0.273-1.492
							c-0.18-0.412-0.427-0.76-0.734-1.032c-0.312-0.275-0.691-0.489-1.128-0.635c-0.45-0.15-0.956-0.227-1.501-0.227
							c-0.87,0-1.631,0.126-2.263,0.374c-0.503,0.199-0.97,0.45-1.392,0.75l0.594,1.051c0.255-0.168,0.539-0.315,0.848-0.44
							c0.527-0.212,1.053-0.319,1.562-0.319c0.86,0,1.512,0.244,1.938,0.725c0.411,0.465,0.62,1.054,0.62,1.75
							c0,0.53-0.105,1.095-0.312,1.679c-0.198,0.557-0.468,1.138-0.803,1.729c-0.333,0.585-0.71,1.17-1.122,1.737
							c-0.412,0.566-0.834,1.117-1.266,1.649c-0.433,0.531-0.861,1.034-1.286,1.509c-0.367,0.409-0.703,0.775-1.006,1.095V149.903
							L48.519,149.903z"/>
					</g>
				</g>
			</g>
		</g>
		<g clip-path="url(#SVGID_2_)">
			<rect x="145" y="170" fill="#B3B3B3" width="74" height="8"/>
			<rect x="71.75" y="170" fill="#B3B3B3" width="20.25" height="8"/>
			<rect x="104.875" y="170" fill="#B3B3B3" width="27.25" height="8"/>
		</g>
		<g clip-path="url(#SVGID_2_)">
			<g>
				<path fill="#999999" d="M41.566,178.213h-1.602l-0.648,2.772H37.39l0.648-2.772h-1.332l0.396-1.746h1.35l0.45-1.908h-1.296
					l0.396-1.745h1.314l0.63-2.593h1.908l-0.612,2.593h1.602l0.63-2.593h1.908l-0.612,2.593h1.296l-0.45,1.745h-1.26l-0.45,1.908
					h1.242l-0.432,1.746h-1.224l-0.648,2.772h-1.926L41.566,178.213z M40.378,176.467h1.602l0.45-1.908h-1.602L40.378,176.467z"/>
				<g>
					<path fill="#999999" d="M48.691,179.594h2.919v-8.295l0.315-1.429l-1.008,1.239l-1.869,1.281l-1.155-1.575l4.788-3.864h1.533
						v12.643h2.856v2.31h-8.379V179.594z"/>
					<path fill="#999999" d="M57.57,182.403h-9.379v-3.31h2.919v-7.511l-2.179,1.494l-1.724-2.351l5.296-4.275h2.21v12.643h2.856
						V182.403L57.57,182.403z M49.191,181.403h7.379v-1.31h-2.856v-12.643h-0.856l-4.279,3.453l0.586,0.8l1.41-0.966l0.962-1.184
						l0.876,0.423l-0.303,1.376v8.74h-2.919V181.403L49.191,181.403z"/>
				</g>
			</g>
		</g>
	</g>
</g>
</svg>
